# xmcd
#
# Track frame offsets:
#	150
#	14487
#	31422
#	46565
#	60180
#	71877
#	83737
#	94755
#	107900
#	120152
#	133445
#	146220
#	167412
#	179000
#	195855
#	210300
#	227495
#	242062
#	254787
#	267735
#	286377
#	302225
#	317912
#	329725
#
# Disc length: 4553 seconds
#
# Revision: 1
# Processed by: cddbd v1.5.2PL0 Copyright (c) Steve Scherf et al.
# Submitted via: audiograbber 1.83.01
#
DISCID=6411c718
DTITLE=BOBY ANGEL - THE HEART AND SOUL CD 1
DYEAR=1900
DGENRE=Country
TTITLE0=YOU ASK ME TO
TTITLE1=DON JUNIOR
TTITLE2=STOP AND SMELL THE ROSES
TTITLE3=BEFORE THE NEXT TEARDROP FALLS
TTITLE4=BABY IT'S YOU
TTITLE5=CAN'T COME HOME TO YOU
TTITLE6=GREEN EYED ANGEL
TTITLE7=DETROIT CITY
TTITLE8=JAMBALAYA
TTITLE9=IT'S A BURNING THING
TTITLE10=THE DOOR IS ALWAYS OPEN
TTITLE11=BACK HOME AGAIN
TTITLE12=HERE WE GO AGAIN
TTITLE13=IT'S FOUR IN THE MORNING
TTITLE14=ME AND BOBBY MC GEE
TTITLE15=FOREVER LOVERS
TTITLE16=REBEL KEEPS ON ROLLING
TTITLE17=MISSISIPPI ON MY MIND
TTITLE18=CLAP YOUR HANDS
TTITLE19=HELP ME
TTITLE20=YOU NEVER SAY YOU LOVE ME ANYMORE
TTITLE21=DEAR WOMAN
TTITLE22=BEYOND THE SEA
TTITLE23=AROUND THE WORLD
EXTD=
EXTT0=
EXTT1=
EXTT2=
EXTT3=
EXTT4=
EXTT5=
EXTT6=
EXTT7=
EXTT8=
EXTT9=
EXTT10=
EXTT11=
EXTT12=
EXTT13=
EXTT14=
EXTT15=
EXTT16=
EXTT17=
EXTT18=
EXTT19=
EXTT20=
EXTT21=
EXTT22=
EXTT23=
PLAYORDER=
